<?xml version="1.0" standalone="no"?><!DOCTYPE svg PUBLIC "-//W3C//DTD SVG 1.1//EN" "http://www.w3.org/Graphics/SVG/1.1/DTD/svg11.dtd"><svg class="icon" width="32px" height="32.00px" viewBox="0 0 1024 1024" version="1.1" xmlns="http://www.w3.org/2000/svg"><path fill="#ffffff" d="M128 874.666667 128 149.333333C128 124.16 142.506667 101.973333 163.84 91.733333L584.106667 512 163.84 932.266667C142.506667 921.6 128 899.84 128 874.666667M717.226667 645.12 258.133333 910.506667 620.373333 548.266667 717.226667 645.12M860.16 461.226667C874.666667 472.746667 885.333333 490.666667 885.333333 512 885.333333 533.333333 875.946667 550.4 861.013333 562.346667L763.306667 618.666667 656.64 512 763.306667 405.333333 860.16 461.226667M258.133333 113.493333 717.226667 378.88 620.373333 475.733333 258.133333 113.493333Z" /></svg>