<?xml version="1.0" encoding="UTF-8"?>
<svg width="179px" height="60px" viewBox="0 0 179 60" version="1.1" xmlns="http://www.w3.org/2000/svg" xmlns:xlink="http://www.w3.org/1999/xlink">
    <!-- Generator: Sketch 49 (51002) - http://www.bohemiancoding.com/sketch -->
    <title>LOGO dark</title>
    <desc>Created with Sketch.</desc>
    <defs>
        <polygon id="path-1" points="0 60 178.0521 60 178.0521 0 0 0"></polygon>
    </defs>
    <g id="Page-1" stroke="none" stroke-width="1" fill="none" fill-rule="evenodd">
        <g id="FO-钱包下载" transform="translate(-150.000000, -35.000000)">
            <g id="LOGO-dark" transform="translate(150.000000, 35.000000)">
                <path d="M66.68373,41.68092 L63.97293,41.68092 L63.97293,20.40822 C63.97293,19.28082 64.88673,18.36672 66.01443,18.36672 L81.11523,18.36672 L81.11523,20.77482 L67.15503,20.77482 C66.89493,20.77482 66.68373,20.98602 66.68373,21.24612 L66.68373,29.30592 L79.66443,29.30592 L79.66443,31.71402 L66.68373,31.71402 L66.68373,41.68092 Z" id="Fill-1" fill="#FEFEFE"></path>
                <mask id="mask-2" fill="white">
                    <use xlink:href="#path-1"></use>
                </mask>
                <g id="Clip-4"></g>
                <polygon id="Fill-3" fill="#FEFEFE" mask="url(#mask-2)" points="92.6877 41.6811 95.3988 41.6811 95.3988 18.3669 92.6877 18.3669"></polygon>
                <path d="M119.67255,38.27619 C118.72095,39.00489 117.30375,39.36849 115.42215,39.36849 L110.55915,39.36849 L110.55915,30.64539 L115.19955,30.64539 C117.18735,30.64539 118.66755,30.98619 119.64105,31.66629 C120.61335,32.34639 121.09995,33.40959 121.09995,34.85589 C121.09995,36.40809 120.62385,37.54809 119.67255,38.27619 Z M110.55915,20.71089 L114.54525,20.71089 C116.58675,20.71089 118.07505,21.00099 119.01105,21.57969 C119.94615,22.15959 120.41415,23.10279 120.41415,24.41049 C120.41415,25.83489 119.99385,26.84769 119.15415,27.44859 C118.31475,28.04949 116.93715,28.34889 115.02375,28.34889 L110.55915,28.34889 L110.55915,20.71089 Z M118.69185,29.46549 C118.69185,29.46549 118.63125,29.44809 118.63125,29.38569 C118.63125,29.32899 118.69185,29.30619 118.69185,29.30619 C120.16965,29.04039 121.29345,28.45839 122.06445,27.56019 C122.83515,26.66169 123.22065,25.52139 123.22065,24.13929 C123.22065,22.14099 122.52885,20.67849 121.14765,19.75389 C119.76555,18.82929 117.52755,18.36669 114.43365,18.36669 L107.84805,18.36669 L107.84805,41.68089 L115.98075,41.68089 C118.51035,41.68089 120.48045,41.09619 121.88955,39.92709 C123.29745,38.75709 124.00215,37.13109 124.00215,35.04699 C124.00215,31.93209 122.23185,30.07119 118.69185,29.46549 Z" id="Fill-5" fill="#FEFEFE" mask="url(#mask-2)"></path>
                <path d="M135.89364,29.9919 C135.89364,33.1488 136.56534,35.544 137.91054,37.1757 C139.25544,38.808 141.20934,39.6234 143.77134,39.6234 C146.35404,39.6234 148.30554,38.8107 149.62404,37.1838 C150.94194,35.5572 151.60104,33.1605 151.60104,29.9919 C151.60104,26.8557 150.94464,24.477 149.63184,22.8558 C148.31874,21.2349 146.37594,20.4234 143.80284,20.4234 C141.21984,20.4234 139.25544,21.2397 137.91054,22.8714 C136.56534,24.5037 135.89364,26.877 135.89364,29.9919 M154.47174,29.9919 C154.47174,33.723 153.52824,36.6576 151.64094,38.7942 C149.75334,40.9311 147.13074,42 143.77134,42 C140.33724,42 137.68704,40.9497 135.82164,38.8503 C133.95594,36.7506 133.02324,33.7869 133.02324,29.9604 C133.02324,26.1645 133.95834,23.2227 135.82944,21.1335 C137.70054,19.0446 140.35824,18 143.80284,18 C147.15174,18 149.76714,19.0632 151.64904,21.1896 C153.53064,23.3157 154.47174,26.2494 154.47174,29.9919" id="Fill-6" fill="#FEFEFE" mask="url(#mask-2)"></path>
                <path d="M178.05213,35.47776 C178.05213,37.52946 177.30723,39.12966 175.81923,40.27776 C174.33093,41.42586 172.31133,42.00006 169.75893,42.00006 C166.99473,42.00006 164.86923,41.64366 163.38093,40.93116 L163.38093,38.31576 C164.33703,38.72076 165.37923,39.03906 166.50663,39.27276 C167.63283,39.50706 168.74943,39.62346 169.85553,39.62346 C171.66273,39.62346 173.02293,39.28086 173.93703,38.59506 C174.85143,37.90926 175.30863,36.95556 175.30863,35.73276 C175.30863,34.92486 175.14693,34.26306 174.82203,33.74736 C174.49833,33.23166 173.95593,32.75616 173.19633,32.31996 C172.43583,31.88406 171.27993,31.39026 169.72743,30.83736 C167.55903,30.06066 166.00923,29.14176 165.07893,28.07856 C164.14833,27.01536 163.68363,25.62756 163.68363,23.91576 C163.68363,22.11996 164.35833,20.68986 165.70863,19.62666 C167.05863,18.56346 168.84513,18.03156 171.06693,18.03156 C173.38473,18.03156 175.51623,18.45666 177.46173,19.30776 L176.61663,21.66726 C174.69183,20.85996 172.82133,20.45586 171.00363,20.45586 C169.56813,20.45586 168.44643,20.76456 167.63853,21.38046 C166.83033,21.99756 166.42623,22.85346 166.42623,23.94816 C166.42623,24.75636 166.57533,25.41786 166.87323,25.93356 C167.17053,26.44926 167.67303,26.92236 168.38013,27.35226 C169.08693,27.78306 170.16903,28.25916 171.62553,28.77966 C174.07023,29.65176 175.75263,30.58716 176.67243,31.58616 C177.59163,32.58636 178.05213,33.88266 178.05213,35.47776" id="Fill-7" fill="#FEFEFE" mask="url(#mask-2)"></path>
                <polygon id="Fill-8" fill="#FFFFFF" opacity="0.7" mask="url(#mask-2)" points="34.1403 39.5544 40.1904 44.7399 40.6926 44.3064 40.7547 44.253 41.2101 42.93 35.6982 38.2101"></polygon>
                <polygon id="Fill-9" fill="#FFFFFF" opacity="0.7" mask="url(#mask-2)" points="10.33527 44.73279 16.39317 39.55419 14.83527 38.20989 9.32007 42.91929 9.77907 44.25309"></polygon>
                <polygon id="Fill-10" fill="#FFFFFF" opacity="0.7" mask="url(#mask-2)" points="25.26687 31.90134 29.62587 35.66184 31.18437 34.31694 26.28507 30.08994 26.28507 3.56814 25.26687 2.68974 24.24867 3.56814 24.24867 30.08994 19.34937 34.31694 20.90787 35.66184"></polygon>
                <path d="M47.85666,22.17843 L25.26696,41.66703 L2.67696,22.17843 L25.26696,2.68983 L47.85666,22.17843 Z M40.75476,43.94913 L40.69266,44.00253 L26.28516,56.43243 L26.28516,43.47843 L47.09916,25.52163 L40.75476,43.94913 Z M24.24906,56.43243 L9.77916,43.94913 L3.43506,25.52163 L24.24906,43.47843 L24.24906,56.43243 Z M8.03256,45.13143 L25.26696,60.00003 L42.50106,45.13143 L50.53386,21.79893 L25.26696,3e-05 L6e-05,21.79893 L8.03256,45.13143 Z" id="Fill-11" fill="#FFFFFF" mask="url(#mask-2)"></path>
            </g>
        </g>
    </g>
</svg>